<?xml version="1.0" standalone="no"?>
<!DOCTYPE svg PUBLIC "-//W3C//DTD SVG 20010904//EN"
 "http://www.w3.org/TR/2001/REC-SVG-20010904/DTD/svg10.dtd">
<svg version="1.0" xmlns="http://www.w3.org/2000/svg"
 width="890.000000pt" height="819.000000pt" viewBox="0 0 890.000000 819.000000"
 preserveAspectRatio="xMidYMid meet">
<metadata>
Created by potrace 1.16, written by Peter Selinger 2001-2019
</metadata>
<g transform="translate(0.000000,819.000000) scale(0.100000,-0.100000)"
fill="#000000" stroke="none">
<path d="M4297 8163 c-20 -26 -58 -30 -104 -11 -31 13 -343 21 -343 9 0 -11
94 -61 116 -61 41 0 3 -8 -66 -15 -102 -9 -323 -50 -445 -82 -301 -79 -595
-226 -771 -387 l-59 -54 85 24 c106 31 237 54 304 54 l51 0 -95 -43 c-263
-120 -485 -305 -633 -530 -87 -131 -137 -233 -109 -222 33 14 105 35 108 32 2
-2 -23 -39 -57 -82 -71 -94 -157 -241 -205 -357 -32 -75 -84 -236 -84 -260 0
-5 25 9 57 31 31 23 58 39 60 38 2 -2 -4 -24 -12 -48 -40 -111 -66 -285 -74
-488 -2 -41 10 -43 35 -7 14 20 27 36 29 36 8 0 -6 -73 -21 -110 -8 -19 -29
-51 -47 -70 -18 -19 -28 -32 -24 -28 13 10 67 -12 67 -27 0 -15 -62 -72 -96
-87 -29 -13 -26 -32 4 -36 12 -2 22 -6 22 -10 -1 -4 -34 -22 -75 -41 -41 -19
-75 -38 -75 -43 0 -4 17 -9 38 -9 20 -1 50 -4 66 -8 27 -6 24 -9 -81 -88 -131
-98 -270 -227 -336 -312 -27 -33 -47 -61 -45 -61 2 0 41 16 87 35 45 19 87 35
93 35 6 0 -26 -38 -71 -85 -44 -47 -116 -133 -160 -192 -112 -148 -243 -417
-195 -399 9 3 34 9 56 12 l40 7 -35 -69 c-95 -188 -137 -436 -117 -682 26
-323 123 -591 339 -937 l56 -90 6 108 c3 59 8 110 11 112 3 3 22 -48 43 -112
97 -305 266 -614 468 -857 77 -93 233 -247 271 -268 8 -4 -8 29 -35 74 -51 86
-91 178 -104 238 -7 33 -7 33 43 -25 214 -256 571 -513 853 -616 57 -21 58
-22 69 -73 17 -81 49 -174 97 -276 186 -400 510 -651 941 -727 72 -13 151 -17
307 -17 190 1 221 3 328 27 403 91 692 317 876 685 44 88 93 224 111 309 11
50 12 51 69 72 259 94 542 289 780 537 98 102 121 121 115 98 -13 -55 -65
-171 -109 -242 -59 -96 -35 -82 114 67 267 267 477 618 597 997 43 136 51 133
53 -21 l1 -90 20 25 c34 44 143 232 188 323 85 174 142 345 178 537 26 139 23
390 -6 530 -22 110 -78 272 -113 329 l-21 34 41 -6 c23 -4 48 -10 56 -13 14
-5 13 3 -2 54 -44 143 -188 363 -354 538 -94 99 -96 99 103 16 27 -11 -85 121
-174 205 -50 46 -139 121 -199 166 -107 79 -109 82 -81 88 16 4 46 7 67 8 20
0 37 5 37 9 0 5 -34 24 -75 43 -41 19 -74 37 -75 41 0 4 10 8 22 10 34 5 31
22 -6 42 -19 10 -47 31 -62 47 -25 26 -26 31 -13 45 9 8 25 16 36 17 19 1 18
4 -13 41 -19 22 -41 63 -49 90 -22 74 -19 86 14 48 l29 -33 6 43 c12 82 -17
305 -58 450 l-22 76 25 -16 c14 -9 41 -28 60 -41 l34 -25 -8 34 c-38 186 -173
458 -315 635 -17 22 -27 41 -22 43 5 1 33 -6 63 -17 29 -11 54 -19 56 -18 6 6
-74 154 -119 222 -158 238 -432 458 -693 557 l-50 19 90 -5 c97 -6 192 -23
295 -55 l65 -20 -60 55 c-248 227 -684 403 -1139 459 -66 8 -127 15 -135 15
-8 0 15 14 50 32 l64 32 -40 8 c-55 10 -189 8 -255 -3 -139 -23 -135 -23 -157
4 -18 23 -23 25 -59 17 -49 -12 -307 -12 -354 -1 -31 7 -38 5 -53 -16z m588
-159 c178 -20 393 -65 555 -114 152 -47 392 -139 386 -149 -3 -4 -19 -8 -38
-9 -18 -1 -62 -16 -98 -33 l-65 -30 65 -23 c124 -43 239 -115 388 -241 81 -68
212 -195 202 -195 -3 0 -41 7 -85 15 -44 8 -91 14 -105 15 -22 0 -20 -3 16
-23 178 -102 332 -257 437 -438 81 -141 152 -350 188 -555 22 -129 38 -503 25
-608 -7 -52 -9 -56 -34 -56 -15 0 -47 -10 -72 -21 -40 -19 -43 -22 -25 -30 11
-4 38 -16 60 -25 l40 -17 -37 -7 c-20 -4 -44 -13 -53 -20 -14 -11 -9 -17 42
-43 233 -119 459 -445 622 -897 28 -77 29 -82 9 -55 -43 57 -86 100 -132 133
-25 18 -46 32 -46 30 0 -2 4 -18 10 -36 13 -47 23 -177 15 -201 -6 -19 -10
-16 -45 26 -57 72 -136 145 -225 209 l-80 57 50 -6 c28 -3 59 -9 70 -13 10 -4
1 8 -20 27 -166 146 -416 305 -570 362 -130 48 -260 86 -335 98 -96 15 -279 5
-385 -20 -93 -23 -272 -84 -327 -112 -53 -27 -59 -24 -13 8 61 41 265 143 288
143 11 0 18 3 14 6 -14 15 -232 -50 -323 -96 -52 -26 -94 -42 -94 -36 0 6 9
26 20 44 l20 32 -38 -15 c-54 -23 -101 -63 -155 -134 -35 -47 -49 -58 -53 -46
-12 29 4 95 39 170 39 81 35 84 -40 33 -51 -34 -94 -86 -130 -155 -32 -61 -41
-53 -42 39 -1 66 24 142 64 194 55 72 69 144 37 184 l-18 23 -31 -39 c-68 -87
-134 -214 -145 -279 -2 -11 -9 9 -16 45 -22 109 -52 192 -94 258 -22 34 -44
62 -47 62 -15 0 -69 -87 -95 -153 -15 -38 -34 -103 -42 -145 -8 -41 -16 -77
-18 -79 -2 -2 -6 12 -9 30 -8 50 -61 152 -119 231 l-51 70 -19 -24 c-30 -37
-19 -96 30 -172 23 -35 48 -83 57 -107 16 -45 19 -142 6 -175 -6 -17 -9 -15
-21 14 -23 54 -96 146 -142 177 -77 52 -80 50 -40 -34 34 -73 56 -184 36 -182
-5 0 -29 28 -54 61 -51 70 -98 110 -154 133 l-38 16 21 -34 c11 -19 21 -39 21
-45 0 -6 -33 6 -72 28 -68 36 -228 91 -308 105 -24 4 -12 -4 40 -27 93 -42
298 -158 278 -158 -3 0 -38 15 -79 34 -236 107 -507 157 -699 127 -173 -27
-449 -137 -622 -247 -120 -77 -348 -258 -304 -241 10 4 41 10 69 13 l52 5 -34
-21 c-88 -56 -211 -168 -284 -258 -15 -19 -27 -28 -28 -20 0 7 -3 32 -5 56 -4
43 8 140 22 176 6 16 4 17 -14 7 -27 -14 -133 -118 -160 -156 -16 -23 -12 -6
17 75 109 302 258 562 412 720 78 80 120 112 200 155 l62 33 -27 17 c-14 10
-37 18 -51 18 -36 0 -22 13 35 32 28 9 50 19 50 21 0 10 -86 44 -112 44 -25 0
-27 4 -34 57 -11 88 3 477 20 578 84 484 272 800 596 999 68 42 72 46 43 46
-18 0 -64 -7 -104 -15 -40 -9 -74 -14 -76 -12 -6 6 176 178 257 242 99 79 226
153 319 186 l76 26 -35 22 c-19 11 -59 26 -90 32 -30 6 -62 13 -70 16 -8 2 20
20 63 39 182 80 449 159 672 198 190 33 204 35 335 42 63 4 117 8 119 10 9 8
336 -8 456 -22z m-2044 -3220 c-25 -32 -44 -95 -35 -118 5 -14 12 -11 40 14
54 47 99 65 201 84 l32 5 -18 -40 c-10 -22 -17 -54 -16 -72 2 -18 3 -40 4 -49
2 -29 18 -21 24 12 4 16 22 47 41 67 l35 38 -11 -37 c-8 -28 -8 -48 1 -81 l13
-45 31 17 c24 12 57 15 130 14 l99 -2 82 -79 c59 -57 105 -90 161 -118 75 -37
82 -39 179 -39 119 0 187 24 208 72 7 15 13 30 15 32 6 9 114 -92 147 -138 99
-134 91 -274 -23 -446 -51 -77 -192 -257 -198 -252 -1 2 2 19 6 38 10 45 -2
125 -14 94 -56 -148 -83 -171 -293 -245 -34 -13 -81 -36 -102 -51 -33 -24 -40
-35 -40 -64 0 -27 7 -39 33 -59 41 -31 47 -32 40 -6 -16 60 31 102 174 155 48
18 97 36 108 41 14 6 10 -4 -17 -37 -91 -112 -162 -248 -210 -399 -33 -106
-33 -258 -1 -313 l23 -38 -41 -54 c-23 -30 -45 -55 -48 -55 -4 0 -33 -16 -66
-35 -32 -20 -60 -33 -64 -30 -11 11 -13 132 -2 170 l10 40 -33 -39 c-19 -22
-43 -57 -54 -78 -18 -37 -20 -38 -26 -16 -21 77 -16 283 10 353 10 30 -80 -61
-122 -121 -20 -28 -41 -68 -48 -89 l-13 -38 -11 34 c-26 82 -44 217 -40 304
l4 89 -25 -69 -26 -70 -6 47 c-4 25 -15 73 -25 105 l-19 58 -2 -55 c-4 -86
-24 -220 -33 -220 -4 0 -16 30 -26 68 -14 49 -19 101 -19 194 0 70 -3 121 -7
114 -18 -32 -51 -179 -57 -251 l-7 -80 -16 55 c-26 85 -39 170 -41 269 -1 49
-5 84 -8 78 -4 -7 -19 -61 -35 -122 -21 -85 -27 -132 -26 -205 1 -89 0 -93
-14 -68 -37 70 -84 238 -95 343 -11 95 -10 122 4 200 9 49 15 91 13 92 -13 13
-76 -138 -76 -179 0 -16 -3 -19 -11 -11 -16 16 -13 161 5 211 8 23 11 42 6 42
-17 0 -101 -106 -130 -162 l-28 -58 -11 51 c-14 62 -14 209 -1 243 15 40 4 31
-38 -31 -50 -74 -90 -153 -113 -223 l-18 -55 5 55 c15 155 22 203 46 295 12
44 32 105 45 135 l24 54 -26 -24 c-33 -31 -89 -115 -103 -155 l-10 -30 -1 36
c-1 49 33 180 63 240 21 41 22 48 8 40 -9 -5 -26 -19 -36 -30 -42 -46 -32 -15
31 97 112 198 246 385 344 477 l42 40 -53 -79 c-54 -82 -105 -185 -133 -271
-14 -41 -38 -195 -31 -195 1 0 27 43 58 95 54 89 158 215 196 235 12 6 5 -14
-22 -65 -93 -178 -134 -313 -144 -485 -4 -58 -4 -103 -1 -100 3 3 17 34 31 70
39 95 99 191 163 260 30 33 57 59 60 57 2 -2 -17 -42 -41 -88 -68 -128 -98
-226 -97 -322 0 -44 2 -82 5 -84 2 -2 21 20 41 49 56 78 124 156 157 179 l28
21 -29 -44 c-16 -23 -36 -65 -45 -91 -16 -48 -22 -141 -8 -135 4 2 43 22 87
44 44 23 94 45 112 48 l31 7 -14 -38 c-12 -36 -18 -73 -11 -73 2 0 24 7 50 16
26 9 51 14 57 12 5 -2 -3 -31 -20 -67 -21 -44 -51 -84 -98 -129 l-67 -64 100
52 c55 29 112 61 127 71 37 26 41 24 22 -13 -33 -65 -76 -119 -126 -158 -27
-22 -47 -40 -44 -40 16 0 188 71 246 101 36 19 68 35 73 37 7 4 2 -112 -9
-198 -8 -60 -42 -161 -62 -184 -26 -28 76 37 123 79 39 35 39 35 -15 -5 -30
-22 -58 -40 -62 -40 -4 0 0 19 7 43 20 59 41 200 44 293 l2 79 -28 -26 c-26
-25 -103 -68 -159 -89 -28 -11 -28 -11 18 57 28 41 49 86 89 187 l20 49 -58
-59 c-32 -32 -74 -68 -93 -79 l-35 -19 16 24 c8 14 26 51 39 83 l23 58 22 -21
23 -22 7 34 c11 49 39 99 77 134 74 70 152 89 329 79 126 -7 130 -7 183 19 60
29 179 134 201 177 19 35 19 80 1 104 -13 18 -15 17 -34 -21 -11 -21 -47 -65
-81 -97 -94 -90 -195 -127 -332 -121 -149 7 -270 -33 -357 -117 -51 -48 -62
-73 -51 -111 7 -27 6 -28 -26 -28 -19 0 -45 -4 -59 -10 -14 -5 -26 -7 -26 -4
0 11 23 50 44 73 l21 24 -72 -5 c-51 -4 -89 -14 -139 -37 -37 -17 -69 -29 -72
-27 -8 8 17 67 49 117 17 26 62 77 100 113 38 36 69 67 69 69 0 2 -26 0 -57
-5 -80 -12 -146 -51 -230 -135 -40 -40 -73 -68 -73 -63 0 48 96 254 171 368
l48 73 -32 -6 c-83 -18 -191 -103 -263 -208 -35 -52 -36 -52 -29 -17 22 109
111 320 182 433 l24 39 -23 -7 c-38 -12 -81 -36 -122 -68 -37 -30 -125 -141
-160 -202 l-17 -30 7 35 c20 110 114 309 193 408 45 56 98 92 134 92 17 0 17
-2 -2 -26z m3422 12 c18 -7 48 -31 67 -52 18 -21 36 -38 39 -37 21 7 172 -175
276 -332 64 -95 175 -289 175 -303 0 -3 -12 8 -27 22 -15 15 -35 32 -45 37
-15 8 -14 2 6 -38 31 -62 53 -143 60 -218 5 -52 4 -56 -5 -30 -16 41 -72 125
-104 155 l-26 24 25 -56 c45 -101 70 -221 90 -428 l5 -55 -18 55 c-10 30 -30
80 -46 110 -28 55 -102 170 -110 170 -2 0 1 -14 7 -31 11 -33 6 -240 -7 -271
-5 -13 -14 -4 -36 42 -29 56 -112 160 -129 160 -4 0 -1 -21 7 -47 8 -27 14
-81 15 -121 0 -85 -16 -116 -26 -52 -6 40 -63 166 -71 158 -2 -2 1 -23 6 -48
14 -63 18 -204 8 -280 -10 -68 -57 -228 -87 -295 l-18 -39 -2 85 c0 47 -5 113
-11 146 -9 59 -48 203 -55 203 -2 0 -4 -41 -4 -91 -2 -99 -14 -183 -40 -269
l-16 -55 -7 80 c-5 70 -39 219 -58 252 -3 6 -6 -45 -6 -115 0 -124 -24 -262
-45 -262 -5 0 -12 26 -16 58 -4 31 -8 64 -10 72 -1 8 -3 44 -4 80 -1 83 -15
63 -39 -57 l-18 -85 -25 69 -25 68 5 -85 c4 -83 -15 -234 -40 -309 l-11 -34
-12 36 c-7 20 -26 58 -43 84 -37 58 -137 157 -128 128 27 -92 33 -209 15 -312
l-11 -64 -19 38 c-11 21 -35 56 -54 78 l-34 40 10 -40 c11 -40 8 -159 -4 -171
-4 -4 -15 0 -24 8 -10 9 -40 27 -68 41 -32 16 -63 43 -86 74 l-36 49 21 40
c18 33 21 55 21 144 -1 95 -5 116 -39 217 -41 120 -95 221 -176 328 -30 40
-44 64 -33 60 10 -4 58 -22 106 -40 143 -53 190 -95 174 -155 -3 -11 -3 -20
-1 -20 15 0 57 37 68 59 27 52 -12 94 -127 136 -156 57 -197 78 -228 113 -28
32 -41 55 -75 137 -11 28 -22 -60 -12 -99 4 -16 7 -31 5 -32 -4 -4 -117 135
-172 212 -138 192 -155 326 -59 470 31 46 138 153 154 154 3 0 11 -14 17 -30
24 -64 179 -98 302 -66 91 23 152 60 247 148 76 70 88 78 126 80 96 3 162 -3
189 -16 l28 -14 12 52 c8 39 9 58 0 74 -19 36 -12 37 24 2 19 -18 37 -46 40
-61 10 -43 22 -44 29 -2 4 23 1 58 -9 88 -8 28 -15 50 -15 51 0 1 22 -3 50 -7
65 -10 127 -39 173 -79 l37 -32 0 45 c0 31 -8 55 -25 81 -27 41 -18 46 38 22z
m-2398 -207 c22 -10 49 -26 59 -34 19 -15 19 -15 -5 -41 -63 -68 -142 -79
-192 -26 -31 32 -62 101 -50 112 24 24 132 17 188 -11z m1518 11 c11 -10 -14
-68 -47 -107 -49 -58 -123 -53 -186 12 -33 34 -33 35 -14 50 32 26 71 45 111
54 40 10 122 5 136 -9z m-908 -535 c18 -61 36 -127 40 -148 4 -20 10 -37 14
-37 3 0 23 62 44 137 22 75 48 162 60 192 l20 56 27 -110 c14 -60 37 -141 49
-178 13 -38 21 -69 20 -70 -2 -1 -24 -12 -49 -25 -25 -12 -56 -32 -70 -43 -23
-18 -23 -19 -2 -9 12 6 51 13 85 17 l64 6 30 -45 31 -46 -83 -42 c-46 -23 -91
-50 -100 -60 -17 -18 -16 -18 31 -1 27 11 82 23 123 28 l73 10 34 -46 c18 -25
34 -49 34 -53 0 -5 -17 -8 -37 -8 -87 0 -249 -57 -289 -101 -13 -14 -5 -13 44
7 70 28 156 42 238 37 84 -4 97 -9 117 -44 23 -42 22 -46 -15 -53 -34 -6 -158
-61 -158 -70 0 -3 17 1 38 8 54 19 128 28 164 21 27 -6 36 -19 83 -119 97
-203 116 -290 90 -413 -22 -103 -78 -197 -178 -297 -48 -49 -85 -91 -82 -94
11 -11 225 109 313 176 54 41 57 39 111 -71 48 -98 74 -201 69 -278 -2 -32 1
-55 6 -52 21 13 47 98 49 158 1 36 5 65 8 65 18 0 173 -179 207 -238 94 -162
125 -307 84 -389 -39 -76 -119 -127 -198 -126 -65 0 -117 13 -355 84 -353 105
-530 139 -732 139 -201 -1 -373 -34 -738 -143 -300 -91 -366 -99 -442 -54
-141 84 -154 216 -41 441 42 83 103 163 177 234 31 28 58 52 60 52 2 0 3 -19
1 -42 -2 -46 21 -131 46 -167 14 -21 15 -19 12 34 -5 78 22 188 69 281 54 106
62 114 91 88 65 -57 320 -205 333 -192 3 3 -34 45 -82 94 -173 174 -225 347
-162 539 35 105 125 281 146 287 33 9 126 0 171 -16 24 -8 40 -11 37 -7 -7 12
-149 71 -169 71 -24 0 -19 22 12 58 25 30 33 33 97 37 82 4 194 -15 262 -45
43 -19 45 -19 30 -2 -41 45 -202 102 -289 102 -21 0 -38 2 -38 5 0 3 16 27 36
55 28 39 41 49 57 46 12 -3 44 -8 72 -11 27 -4 71 -15 97 -25 27 -10 45 -14
42 -9 -10 17 -119 82 -156 93 l-37 11 30 48 c26 43 33 47 67 47 20 0 55 -5 77
-10 l40 -9 -30 24 c-16 14 -43 30 -60 36 -16 7 -31 14 -33 15 -2 1 10 44 26
96 17 51 38 131 48 177 l18 84 19 -44 c10 -24 33 -94 52 -154z m145 -2245
c130 -15 246 -40 345 -72 91 -30 185 -68 185 -74 0 -2 -11 -27 -25 -57 -51
-106 -152 -205 -270 -262 -87 -41 -128 -53 -239 -64 -294 -30 -556 91 -671
309 -19 38 -35 70 -35 73 0 8 148 64 240 91 113 33 222 52 370 65 9 0 54 -4
100 -9z m-799 -252 c64 -180 217 -337 398 -407 101 -39 184 -53 316 -53 285
-1 514 120 645 341 21 36 48 91 59 122 l21 56 110 -36 109 -36 30 -55 c29 -56
61 -149 61 -181 0 -15 -8 -12 -50 16 -41 28 -194 95 -216 95 -3 0 15 -23 40
-51 41 -46 119 -169 112 -176 -2 -2 -23 8 -47 21 -24 14 -71 37 -104 51 l-60
27 31 -34 c17 -18 46 -55 63 -81 34 -50 87 -161 74 -155 -4 2 -64 32 -133 66
-69 34 -129 62 -133 62 -5 0 2 -14 14 -31 34 -49 77 -142 94 -207 22 -86 19
-89 -23 -35 -40 50 -179 169 -188 161 -2 -3 4 -25 14 -49 34 -80 73 -280 71
-371 l0 -43 -16 40 c-28 70 -101 170 -172 238 -39 36 -79 71 -90 76 -19 10
-19 10 -1 -38 11 -26 26 -84 34 -127 29 -155 29 -155 -14 -68 -37 73 -167 251
-177 241 -2 -3 1 -33 7 -68 5 -35 9 -75 9 -89 l-1 -25 -7 25 c-8 25 -59 130
-64 130 -1 0 -1 -37 -1 -82 2 -79 -9 -205 -22 -258 -5 -20 -11 -7 -29 60 -41
153 -49 180 -55 180 -3 0 -21 -56 -40 -124 -19 -69 -38 -119 -41 -113 -12 22
-32 225 -27 281 3 31 3 56 1 56 -5 0 -55 -103 -64 -130 -7 -24 -7 -24 -8 5 0
17 5 58 13 93 7 34 9 61 4 60 -22 -8 -143 -172 -178 -243 -35 -72 -39 -76 -34
-40 11 85 34 184 52 233 20 51 20 51 1 41 -11 -5 -51 -40 -90 -76 -71 -68
-144 -168 -172 -238 l-16 -40 0 40 c-1 58 26 241 45 305 9 30 25 72 36 93 12
25 15 36 6 31 -40 -23 -157 -126 -190 -167 -33 -42 -38 -46 -38 -25 0 41 57
188 94 244 20 30 34 54 32 54 -12 0 -215 -95 -239 -112 -15 -11 -30 -18 -32
-16 -10 9 81 170 122 217 l45 52 -58 -26 c-33 -14 -79 -37 -103 -51 -24 -13
-46 -23 -47 -21 -7 7 71 127 114 177 24 28 40 50 37 50 -21 0 -169 -66 -214
-95 l-54 -36 7 42 c8 53 62 183 83 201 16 14 215 87 222 81 2 -2 12 -26 22
-55z"/>
<path d="M4270 7520 c0 -3 5 -21 10 -40 13 -44 25 -174 25 -265 0 -84 -12
-245 -19 -252 -2 -3 -11 8 -20 24 -38 74 -227 246 -368 336 -29 18 -39 9 -13
-13 36 -30 90 -148 124 -269 l19 -68 -117 60 c-102 53 -113 57 -90 31 28 -31
69 -94 69 -107 0 -4 -17 1 -37 12 -35 17 -187 71 -201 71 -4 0 10 -14 31 -31
33 -27 67 -75 67 -94 0 -4 -15 2 -32 13 -38 23 -179 75 -185 68 -3 -2 5 -7 16
-11 35 -11 114 -79 149 -128 l33 -46 -38 16 c-43 19 -223 24 -308 9 l-50 -9
49 -8 c27 -4 55 -14 63 -22 12 -12 4 -15 -60 -20 -96 -7 -228 -52 -312 -107
-73 -47 -80 -60 -18 -30 58 28 117 40 198 39 l70 0 -57 -18 c-72 -23 -153 -69
-244 -137 -78 -59 -117 -97 -77 -76 12 7 37 12 55 12 l33 -1 -37 -19 c-40 -21
-78 -64 -78 -88 0 -12 3 -12 15 -2 9 7 42 13 73 14 45 0 72 -7 127 -33 l70
-33 -62 -14 c-63 -13 -136 -47 -183 -85 l-25 -21 26 6 c29 6 129 -20 129 -33
0 -5 -6 -11 -14 -14 -8 -3 -20 -15 -26 -27 -11 -21 -11 -21 20 -5 44 23 154
45 225 45 l60 0 -70 -32 c-111 -50 -261 -154 -349 -242 -84 -84 -184 -216
-150 -198 48 25 200 44 287 35 l58 -6 -53 -29 c-29 -16 -60 -36 -68 -44 -13
-14 -12 -14 13 -5 33 13 203 13 232 1 l20 -9 -20 0 c-11 -1 -47 -14 -80 -31
-58 -28 -58 -29 -20 -22 69 12 296 5 373 -12 60 -13 176 -53 267 -91 19 -9 19
-8 -2 26 -12 19 -40 49 -63 67 l-42 32 35 0 c41 0 124 -28 197 -66 30 -16 58
-30 62 -32 15 -7 -25 90 -71 169 -27 46 -47 85 -46 87 5 6 118 -48 161 -78 25
-16 47 -30 49 -30 16 0 -80 232 -161 388 -30 58 -53 106 -51 108 2 2 34 -17
72 -43 69 -46 253 -220 293 -278 l21 -30 1 42 c0 56 -25 228 -55 377 -14 66
-23 121 -21 123 8 8 71 -104 117 -206 48 -107 118 -322 120 -364 0 -21 1 -21
10 3 6 14 13 130 16 258 4 129 9 228 13 220 15 -27 56 -232 66 -325 4 -35 10
-63 14 -63 4 0 11 30 15 68 7 72 53 299 63 319 4 6 8 -59 9 -145 3 -152 7
-220 20 -311 l6 -44 22 89 c40 156 122 356 192 467 13 21 27 37 30 34 2 -3 -7
-59 -21 -124 -31 -146 -46 -245 -52 -343 l-5 -75 22 30 c68 92 349 338 366
321 2 -2 -10 -28 -26 -57 -70 -129 -197 -426 -186 -437 2 -2 23 9 47 25 48 33
158 87 164 80 2 -2 -18 -40 -45 -85 -46 -77 -89 -178 -73 -170 4 2 32 16 62
32 74 39 156 66 199 66 l36 0 -37 -25 c-34 -23 -92 -94 -84 -102 1 -2 32 10
67 26 35 16 114 41 174 57 92 23 131 27 240 28 72 0 148 -3 170 -7 39 -6 38
-6 -20 23 -33 17 -69 30 -80 31 l-20 0 20 8 c31 13 198 13 231 1 26 -10 27
-10 14 4 -8 8 -39 28 -68 44 l-54 29 74 7 c76 8 180 -5 251 -30 l38 -13 -18
29 c-37 63 -156 192 -240 259 -87 71 -155 112 -267 164 l-61 28 99 -6 c70 -4
116 -12 157 -29 55 -22 58 -22 48 -4 -6 10 -17 22 -25 25 -8 3 -14 9 -14 13 0
13 69 32 114 32 l41 -1 -25 20 c-45 34 -146 80 -196 88 l-49 8 64 31 c77 37
138 48 182 33 18 -6 35 -9 37 -6 10 10 -35 60 -74 82 -43 25 -27 31 34 13 29
-8 32 -7 21 6 -23 27 -171 135 -223 161 -28 15 -76 34 -106 44 l-55 18 70 0
c81 1 140 -11 198 -39 53 -26 57 -20 10 12 -125 83 -253 126 -378 128 -36 0
-38 1 -24 16 9 8 38 19 65 23 l49 7 -83 13 c-98 16 -221 10 -275 -13 l-38 -15
23 32 c37 51 103 114 144 136 22 11 36 20 32 21 -15 1 -155 -53 -185 -72 l-32
-19 10 30 c6 17 29 47 52 66 22 19 38 35 35 35 -17 0 -183 -61 -205 -75 -14
-9 -27 -14 -30 -11 -7 7 33 73 66 110 24 25 16 23 -79 -25 -58 -30 -108 -55
-112 -57 -42 -19 66 259 125 325 33 38 15 34 -48 -9 -139 -95 -282 -228 -329
-308 l-20 -34 -8 34 c-21 93 -8 442 19 518 4 12 -1 10 -21 -7 -31 -29 -72 -96
-81 -134 -11 -44 -34 -27 -35 26 -1 20 -4 18 -31 -13 -17 -19 -39 -51 -49 -70
l-18 -35 -7 38 c-8 38 -25 51 -25 18 0 -52 -12 -50 -50 8 -45 69 -60 81 -60
49 0 -23 -16 -56 -23 -48 -2 3 -11 25 -20 50 -14 37 -95 147 -97 130z"/>
<path d="M3396 4476 c6 -98 22 -141 71 -196 69 -77 203 -122 259 -85 31 20 25
27 -36 44 -131 37 -227 130 -289 281 -7 19 -9 9 -5 -44z"/>
<path d="M3989 3989 c-47 -92 -139 -155 -333 -228 -60 -23 -123 -50 -142 -61
-68 -43 -92 -124 -58 -196 23 -49 29 -48 30 2 1 55 44 128 99 166 22 16 81 42
130 59 137 47 247 101 278 138 23 28 27 41 27 97 0 35 -2 64 -5 64 -2 0 -14
-19 -26 -41z"/>
<path d="M6370 4698 c0 -4 15 -31 34 -60 50 -79 93 -168 121 -252 37 -110 31
-118 -25 -31 -80 121 -160 192 -249 220 l-23 7 27 -43 c70 -113 158 -323 180
-429 7 -32 4 -29 -45 35 -59 80 -108 126 -164 156 -44 23 -116 51 -116 44 0
-3 21 -35 46 -72 75 -109 174 -323 174 -375 0 -7 -21 11 -46 40 -47 54 -152
134 -191 146 -29 9 -123 24 -123 20 0 -2 36 -38 80 -80 54 -52 89 -96 110
-137 41 -83 40 -105 -6 -73 -36 26 -142 56 -195 56 l-52 0 20 -22 c20 -22 43
-61 43 -72 0 -3 -12 -1 -26 4 -14 6 -40 10 -59 10 -32 0 -33 1 -26 28 11 38 0
63 -51 111 -86 83 -225 129 -352 116 -153 -15 -334 78 -414 213 -23 41 -26 43
-39 26 -17 -23 -17 -68 1 -103 20 -37 125 -134 184 -168 47 -28 49 -28 222
-28 158 0 180 -2 221 -21 88 -41 145 -109 164 -198 l6 -29 23 22 23 22 23 -58
c13 -32 31 -69 39 -83 l16 -24 -35 19 c-19 11 -61 47 -93 79 l-58 59 20 -51
c24 -61 81 -174 112 -220 l21 -32 -25 9 c-57 22 -134 65 -159 89 l-28 26 0
-48 c0 -108 28 -286 55 -348 11 -28 -5 -21 -65 24 -30 23 -48 33 -41 24 13
-15 114 -91 146 -109 6 -3 -2 20 -17 51 -15 31 -32 82 -37 112 -14 80 -23 232
-14 228 4 -2 37 -18 73 -37 57 -30 230 -101 245 -101 3 0 -18 19 -47 43 -46
38 -145 174 -134 184 2 2 28 -11 57 -30 30 -18 88 -50 129 -71 l75 -37 -62 58
c-64 59 -146 194 -124 201 6 2 32 -3 58 -12 26 -9 48 -16 50 -16 8 0 1 44 -12
76 l-15 36 28 -6 c22 -6 85 -35 205 -94 12 -6 8 82 -7 131 -7 25 -28 67 -45
92 l-31 47 28 -21 c33 -23 101 -101 157 -179 20 -29 39 -51 42 -48 2 2 5 33 5
68 1 93 -27 195 -88 316 -29 58 -52 108 -50 109 2 2 29 -24 59 -57 62 -67 126
-170 164 -264 14 -34 27 -63 30 -66 11 -10 -7 206 -22 270 -27 112 -82 249
-136 342 -24 40 -25 47 -10 39 53 -29 178 -191 240 -313 8 -16 16 -26 18 -24
10 10 -30 194 -57 264 -37 97 -159 302 -160 270z"/>
<path d="M5641 4481 c-38 -104 -147 -204 -260 -238 -73 -22 -78 -28 -47 -48
20 -13 38 -16 72 -11 106 14 194 77 234 169 19 43 40 187 28 187 -3 0 -15 -27
-27 -59z"/>
<path d="M5037 3996 c-8 -47 7 -103 35 -133 30 -33 132 -83 238 -118 105 -34
156 -59 193 -94 40 -37 70 -99 71 -148 1 -47 7 -47 30 1 36 76 9 156 -67 200
-23 14 -85 40 -137 59 -187 67 -282 133 -329 226 -12 22 -23 41 -25 41 -2 0
-6 -15 -9 -34z"/>
<path d="M3990 3079 c-26 -50 -33 -148 -16 -221 18 -80 60 -147 136 -223 56
-56 70 -65 76 -52 4 12 -8 32 -40 67 -53 56 -62 79 -13 33 17 -16 50 -43 72
-58 51 -37 95 -77 95 -86 0 -5 -10 -18 -22 -29 l-23 -21 34 3 c54 5 70 36 73
143 3 113 -8 193 -31 231 -30 49 -280 254 -310 254 -6 0 -20 -18 -31 -41z"/>
<path d="M4940 3054 c-132 -101 -201 -164 -216 -199 -22 -55 -34 -156 -27
-240 5 -69 10 -84 33 -107 19 -19 34 -25 49 -21 l22 6 -21 19 c-11 10 -20 22
-20 27 0 9 44 49 95 86 22 15 55 42 73 58 48 46 39 23 -14 -33 -34 -36 -44
-54 -39 -67 5 -15 21 -3 90 69 71 75 86 96 106 155 32 96 32 212 1 271 -12 23
-28 42 -35 42 -6 -1 -50 -30 -97 -66z"/>
</g>
</svg>
